<svg xmlns="http://www.w3.org/2000/svg"  viewBox="0 0 64 64" width="64px" height="64px" baseProfile="basic"><ellipse cx="32" cy="61" opacity=".3" rx="19" ry="3"/><path fill="#37d0ee" d="M46.023,55h-29c-2.761,0-5-2.239-5-5V12c0-2.761,2.239-5,5-5h29c2.761,0,5,2.239,5,5v38	C51.023,52.761,48.785,55,46.023,55z"/><path fill="#008aa9" d="M17.016,55h4V7h-4c-2.761,0-5,2.239-5,5v38C12.016,52.761,14.255,55,17.016,55z"/><path fill="#fff" d="M12.023,11.947V29c2.762,0,5-2.238,5-5l0-11.525c0-0.313,0.191-0.607,0.491-0.7	c2.033-0.635,3.509-2.531,3.509-4.774h-4.053C14.238,7,12.023,9.215,12.023,11.947z" opacity=".3"/><path d="M51.023,50.075V32c-2.762,0-5,2.238-5,5v12c0,0.552-0.448,1-1,1h-9c-2.762,0-5,2.238-5,5h15.075	C48.818,55,51.023,52.795,51.023,50.075z" opacity=".15"/><line x1="15.523" x2="15.523" y1="12.5" y2="19.5" fill="none" stroke="#fff" stroke-linecap="round" stroke-linejoin="round" stroke-miterlimit="10" stroke-width="3"/><path fill="#fd3c4f" d="M35.938,27.595L32,23l-3.938,4.595C27.354,28.421,26,27.92,26,26.832V7h12v19.832	C38,27.92,36.646,28.421,35.938,27.595z"/></svg>